# AST/ASF file generated using VICON BodyLanguage
# -----------------------------------------------
:version 1.10
:name VICON
:units
  mass 1.0
  length 0.45
  angle deg
:documentation
   .ast/.asf automatically generated from VICON data using
   VICON BodyBuilder and BodyLanguage model FoxedUp or BRILLIANT.MOD
:root
   order TX TY TZ RX RY RZ
   axis XYZ
   position 0 0 0  
   orientation 0 0 0 
:bonedata
  begin
     id 1 
     name lhipjoint
     direction 0.621036 -0.695554 0.361275 
     length 2.46325 
     axis 0 0 0  XYZ
  end
  begin
     id 2 
     name lfemur
     direction 0.34202 -0.939693 0  
     length 6.54784  
     axis 0 0 20  XYZ
    dof rx ry rz
    limits (-160.0 20.0)
           (-70.0 70.0)
           (-60.0 70.0)
  end
  begin
     id 3 
     name ltibia
     direction 0.34202 -0.939693 0   
     length 7.84737   
     axis 0 0 20   XYZ
    dof rx
    limits (-10.0 170.0)
  end
  begin
     id 4 
     name lfoot
     direction 0.0790693 -0.217241 0.97291   
     length 2.59747   
     axis -90 7.62852e-016 20   XYZ
    dof rx rz
    limits (-45.0 90.0)
           (-70.0 20.0)
  end
  begin
     id 5 
     name ltoes
     direction 1.53572e-011 -4.21898e-011 1   
     length 1.29919   
     axis -90 7.62852e-016 20   XYZ
    dof rx
    limits (-90.0 20.0)
  end
  begin
     id 6 
     name rhipjoint
     direction -0.602353 -0.708375 0.367935   
     length 2.41867  
     axis 0 0 0  XYZ 
  end
  begin
     id 7 
     name rfemur
     direction -0.34202 -0.939693 0   
     length 6.92065   
     axis 0 0 -20   XYZ
    dof rx ry rz
    limits (-160.0 20.0)
           (-70.0 70.0)
           (-70.0 60.0)
  end
  begin
     id 8 
     name rtibia
     direction -0.34202 -0.939693 0   
     length 7.88883   
     axis 0 0 -20   XYZ
    dof rx
    limits (-10.0 170.0)
 end
 begin
     id 9 
     name rfoot
     direction -0.0768692 -0.211196 0.974416   
     length 2.43714  
     axis -90 -7.62852e-016 -20   XYZ
    dof rx rz
    limits (-45.0 90.0)
           (-20.0 70.0)
  end
  begin
     id 10 
     name rtoes
     direction -1.53575e-011 -4.21933e-011 1   
     length 1.22113   
     axis -90 -7.62852e-016 -20   XYZ
    dof rx
    limits (-90.0 20.0)
  end
  begin
     id 11 
     name lowerback
     direction 0.0197937 0.98943 -0.143655   
     length 2.16931   
     axis 0 0 0   XYZ
    dof rx ry rz
    limits (-20.0 45.0)
           (-30.0 30.0)
           (-30.0 30.0)
  end
  begin
     id 12 
     name upperback
     direction -0.00183968 0.999975 0.00684288   
     length 2.17221   
     axis 0 0 0   XYZ
    dof rx ry rz
    limits (-20.0 45.0)
           (-30.0 30.0)
           (-30.0 30.0)
  end
  begin
     id 13 
     name thorax
     direction -0.00950244 0.997208 0.0740685   
     length 2.22549   
     axis 0 0 0   XYZ
    dof rx ry rz
    limits (-20.0 45.0)
           (-30.0 30.0)
           (-30.0 30.0)
  end
  begin
     id 14 
     name lowerneck
     direction 0.0218238 0.996215 0.0841425   
     length 1.77269   
     axis 0 0 0   XYZ
    dof rx ry rz
    limits (-20.0 45.0)
           (-30.0 30.0)
           (-30.0 30.0)
  end
  begin
     id 15 
     name upperneck
     direction -0.00430652 0.994214 -0.107332   
     length 1.76534   
     axis 0 0 0   XYZ
    dof rx ry rz
    limits (-20.0 45.0)
           (-30.0 30.0)
           (-30.0 30.0)
  end
  begin
     id 16
     name head
     direction -0.00328946 0.998959 -0.0454998  
     length 1.82634  
     axis 0 0 0   XYZ
    dof rx ry rz
    limits (-20.0 45.0)
           (-30.0 30.0)
           (-30.0 30.0)
  end
  begin
     id 17 
     name lclavicle
     direction 0.970962 0.239191 0.00450212  
     length 3.84872  
     axis 0 0 0   XYZ
    dof ry rz
    limits (-20.0 10.0)
           (0.0 20.0)
  end
  begin
     id 18 
     name lhumerus
     direction 1 -4.48966e-011 5.74696e-028   
     length 5.22771   
     axis 180 -30 -90   XYZ
    dof rx ry rz
    limits (-60.0 90.0)
           (-90.0 90.0)
           (-90.0 90.0)
  end
  begin
     id 19
     name lradius
     direction 1 -4.4896e-011 4.25109e-027   
     length 3.45251   
     axis 180 -30 -90   XYZ
    dof rx
    limits (-10.0 170.0)
  end
  begin
     id 20
     name lwrist
     direction 1 -4.48971e-011 1.15382e-027   
     length 1.72626   
     axis -5.52449e-016 90 90   XYZ
    dof ry
    limits (-180.0 0.0)
 end
  begin
     id 21 
     name lhand
     direction 1 -4.49034e-011 2.30765e-027   
     length 0.552119   
     axis -1.47248e-015 90 90   XYZ
    dof rx rz
    limits (-90.0 90.0)
           (-45.0 45.0)
  end
  begin
     id 22 
     name lfingers
     direction 1 -4.48951e-011 4.61529e-027   
     length 0.445133   
     axis -2.94495e-015 90 90   XYZ
    dof rx
    limits (0.0 90.0)
  end
  begin
     id 23
     name lthumb
     direction 0.707107 -6.34991e-011 0.707107   
     length 0.639124   
     axis -90 45 2.85299e-015   XYZ
    dof rx rz
    limits (-45.0 45.0)
           (-45.0 45.0)
  end
  begin
     id 24 
     name rclavicle
     direction -0.97424 0.222511 -0.0366699   
     length 3.73439  
     axis 0 0 0   XYZ 
    dof ry rz
    limits (-10.0 20.0)
           (-20.0 0.0)
  end
  begin
     id 25 
     name rhumerus
     direction -1 -4.48956e-011 -4.97258e-028  
     length 5.2398   
     axis 180 30 90   XYZ
    dof rx ry rz
    limits (-90.0 60.0)
           (-90.0 90.0)
           (-90.0 90.0)
  end
  begin
     id 26 
     name rradius
     direction -1 -4.4897e-011 -1.72611e-027   
     length 3.48042   
     axis 180 30 90   XYZ
    dof rx
    limits (-10.0 170.0)
  end
  begin
     id 27 
     name rwrist
     direction -1 -4.48976e-011 1.15382e-027   
     length 1.74021   
     axis -5.52449e-016 -90 -90   XYZ
    dof ry
    limits (-180.0 0.0)
  end
  begin
     id 28
     name rhand
     direction -1 -4.48963e-011 2.30765e-027   
     length 0.618713   
     axis -1.47248e-015 -90 -90   XYZ
    dof rx rz
    limits (-90.0 90.0)
           (-45.0 45.0)
  end
  begin
     id 29
     name rfingers
     direction -1 -4.4888e-011 4.61529e-027   
     length 0.498823   
     axis -2.94495e-015 -90 -90   XYZ
    dof rx
    limits (0.0 90.0)
  end
  begin
     id 30
     name rthumb
     direction -0.707107 -6.34968e-011 0.707107   
     length 0.716213   
     axis -90 -45 -2.85299e-015   XYZ
    dof rx rz
    limits (-45.0 45.0)
           (-45.0 45.0)
  end
:hierarchy
  begin
    root lhipjoint rhipjoint lowerback
    lhipjoint lfemur
    lfemur ltibia
    ltibia lfoot
    lfoot ltoes
    rhipjoint rfemur
    rfemur rtibia
    rtibia rfoot
    rfoot rtoes
    lowerback upperback
    upperback thorax
    thorax lowerneck lclavicle rclavicle
    lowerneck upperneck
    upperneck head
    lclavicle lhumerus
    lhumerus lradius
    lradius lwrist
    lwrist lhand lthumb
    lhand lfingers
    rclavicle rhumerus
    rhumerus rradius
    rradius rwrist
    rwrist rhand rthumb
    rhand rfingers
  end

#!OML:ASF G:\JayActor3\Patient Classification 1\Patient 1\Session 5\male.ASF
:FULLY-SPECIFIED
:DEGREES
82
root 50.2253 16.7151 -5.60126 101.403 -86.7441 -74.0431
lowerback 16.2792 -0.674782 3.73495
upperback 2.36285 -0.31357 0.658672
thorax -6.61463 -0.286892 -1.34249
lowerneck -2.17938 -0.213669 1.55021
upperneck -3.10892 -0.314866 1.73858
head -0.584574 -0.200821 0.273466
rclavicle 3.08116e-015 -1.19271e-015
rhumerus -30.85 -9.77664 -84.3753
rradius 25.3531
rwrist 2.15685
rhand -20.902 -7.30559
rfingers 7.12502
rthumb 5.46893 -37.215
lclavicle 3.08116e-015 -1.19271e-015
lhumerus -30.6838 2.64742 84.3224
lradius 30.4503
lwrist 26.8096
lhand -19.5907 12.9672
lfingers 7.12502
lthumb 6.73497 42.8401
rfemur -42.7545 7.34029 19.0115
rtibia 30.7893
rfoot -17.8143 -15.2893
rtoes 10.1767
lfemur -35.1762 11.7561 -18.9537
ltibia 16.6612
lfoot -7.3848 1.59369
ltoes -8.08476
83
root 50.2273 16.7153 -5.60044 100.702 -86.7507 -73.3441
lowerback 16.3105 -0.678588 3.72317
upperback 2.37856 -0.320481 0.656685
thorax -6.61518 -0.290116 -1.33632
lowerneck -2.18303 -0.226057 1.54854
upperneck -3.07738 -0.331511 1.75204
head -0.57433 -0.208673 0.277704
rclavicle 1.33186e-014 2.74323e-014
rhumerus -30.8797 -9.61904 -84.4517
rradius 25.4618
rwrist 2.06752
rhand -20.9012 -7.33513
rfingers 7.12502
rthumb 5.46975 -37.2445
lclavicle 1.33186e-014 2.74323e-014
lhumerus -30.6682 2.62594 84.3427
lradius 30.4892
lwrist 26.8567
lhand -19.6057 12.9977
lfingers 7.12502
lthumb 6.7205 42.8711
rfemur -42.7513 7.26636 19.023
rtibia 30.7906
rfoot -17.8041 -15.2558
rtoes 10.1765
lfemur -35.1816 11.6975 -18.9536
ltibia 16.6606
lfoot -7.37947 1.62071
ltoes -8.08523
84
root 50.2293 16.7155 -5.59933 99.9824 -86.7531 -72.6304
lowerback 16.3377 -0.680762 3.71271
upperback 2.39926 -0.325346 0.657639
thorax -6.60805 -0.292256 -1.32825
lowerneck -2.18942 -0.239549 1.54327
upperneck -3.04789 -0.349615 1.7669
head -0.564257 -0.217253 0.282943
rclavicle 1.6201e-014 2.98177e-014
rhumerus -30.9063 -9.43722 -84.5357
rradius 25.5962
rwrist 1.96283
rhand -20.8839 -7.35583
rfingers 7.12502
rthumb 5.48648 -37.2648
lclavicle 1.6201e-014 2.98177e-014
lhumerus -30.6499 2.59259 84.3695
lradius 30.5454
lwrist 26.9074
lhand -19.6156 13.0156
lfingers 7.12502
lthumb 6.7109 42.8892
rfemur -42.7459 7.1981 19.0357
rtibia 30.7957
rfoot -17.7964 -15.2287
rtoes 10.1726
lfemur -35.1769 11.6124 -18.9364
ltibia 16.6537
lfoot -7.37653 1.67742
ltoes -8.08187
85
root 50.2312 16.7156 -5.59797 99.2762 -86.7542 -71.9337
lowerback 16.3582 -0.680975 3.69992
upperback 2.42586 -0.328593 0.660512
thorax -6.59083 -0.293401 -1.31724
lowerneck -2.1987 -0.253534 1.53698
upperneck -3.02198 -0.368485 1.77715
head -0.554803 -0.226222 0.28695
rclavicle -5.1684e-015 -4.35338e-014
rhumerus -30.9276 -9.23455 -84.6261
rradius 25.755
rwrist 1.83798
rhand -20.8514 -7.37014
rfingers 7.12502
rthumb 5.51779 -37.2783
lclavicle -5.1684e-015 -4.35338e-014
lhumerus -30.6211 2.55776 84.4016
lradius 30.6103
lwrist 26.9514
lhand -19.6273 13.0353
lfingers 7.12502
lthumb 6.69961 42.9093
rfemur -42.7392 7.13607 19.0466
rtibia 30.8063
rfoot -17.792 -15.2084
rtoes 10.1603
lfemur -35.1592 11.4974 -18.9026
ltibia 16.6379
lfoot -7.37786 1.76869
ltoes -8.06923
86
root 50.2328 16.7155 -5.59627 98.6034 -86.753 -71.2734
lowerback 16.377 -0.680398 3.68915
upperback 2.45318 -0.330599 0.663197
thorax -6.57182 -0.293977 -1.30785
lowerneck -2.20506 -0.267083 1.53309
upperneck -2.99767 -0.386781 1.78245
head -0.546322 -0.234924 0.289078
rclavicle 5.06901e-015 7.65321e-015
rhumerus -30.9508 -9.0205 -84.722
rradius 25.9355
rwrist 1.69431
rhand -20.8119 -7.37845
rfingers 7.12502
rthumb 5.55592 -37.2856
lclavicle 5.06901e-015 7.65321e-015
lhumerus -30.5935 2.51901 84.4344
lradius 30.6877
lwrist 26.9896
lhand -19.6209 13.0329
lfingers 7.12502
lthumb 6.70576 42.9067
rfemur -42.7317 7.07734 19.0582
rtibia 30.8226
rfoot -17.7901 -15.1899
rtoes 10.146
lfemur -35.1278 11.3474 -18.8485
ltibia 16.6132
lfoot -7.38373 1.89986
ltoes -8.04059
87
root 50.2342 16.7152 -5.59424 97.9814 -86.7486 -70.6691
lowerback 16.3922 -0.677671 3.67934
upperback 2.48248 -0.329897 0.666187
thorax -6.54853 -0.293208 -1.2993
lowerneck -2.20354 -0.280388 1.53386
upperneck -2.98069 -0.4046 1.78367
head -0.541372 -0.243552 0.289251
rclavicle 6.26172e-015 2.29596e-014
rhumerus -30.975 -8.80305 -84.8204
rradius 26.1354
rwrist 1.53161
rhand -20.7703 -7.38884
rfingers 7.12502
rthumb 5.59613 -37.2949
lclavicle 6.26172e-015 2.29596e-014
lhumerus -30.5603 2.4805 84.4685
lradius 30.7684
lwrist 27.02
lhand -19.606 13.0255
lfingers 7.12502
lthumb 6.72019 42.8988
rfemur -42.7209 7.02565 19.0708
rtibia 30.844
rfoot -17.7918 -15.1759
rtoes 10.128
lfemur -35.0817 11.1667 -18.7739
ltibia 16.5822
lfoot -7.39606 2.06772
ltoes -8.00801
88
root 50.2352 16.7146 -5.59177 97.4094 -86.7397 -70.1207
lowerback 16.4153 -0.676015 3.67738
upperback 2.5062 -0.328738 0.666513
thorax -6.53567 -0.292592 -1.29806
lowerneck -2.19392 -0.291767 1.54428
upperneck -2.96259 -0.4199 1.77687
head -0.537436 -0.250967 0.285456
rclavicle 1.02374e-014 -2.08724e-015
rhumerus -31.0088 -8.58449 -84.9245
rradius 26.3534
rwrist 1.35203
rhand -20.7325 -7.40408
rfingers 7.12502
rthumb 5.63259 -37.3092
lclavicle 1.02374e-014 -2.08724e-015
lhumerus -30.536 2.44136 84.4988
lradius 30.8557
lwrist 27.0456
lhand -19.5838 13.0046
lfingers 7.12502
lthumb 6.74165 42.8772
rfemur -42.704 6.97513 19.0882
rtibia 30.868
rfoot -17.7937 -15.1614
rtoes 10.1076
lfemur -35.0247 10.9691 -18.6856
ltibia 16.5506
lfoot -7.41633 2.25802
ltoes -7.9852
89
root 50.2359 16.7139 -5.58863 96.91 -86.725 -69.6513
lowerback 16.4384 -0.673901 3.68261
upperback 2.5307 -0.325829 0.666706
thorax -6.52181 -0.291298 -1.30142
lowerneck -2.1764 -0.300796 1.5604
upperneck -2.95099 -0.431943 1.765
head -0.53679 -0.256907 0.279251
rclavicle -2.08724e-014 -4.36332e-014
rhumerus -31.0414 -8.36975 -85.0298
rradius 26.5867
rwrist 1.1564
rhand -20.6973 -7.42607
rfingers 7.12502
rthumb 5.66662 -37.3303
lclavicle -2.08724e-014 -4.36332e-014
lhumerus -30.5159 2.39451 84.5299
lradius 30.9551
lwrist 27.0779
lhand -19.5538 12.9758
lfingers 7.12502
lthumb 6.77053 42.8476
rfemur -42.6797 6.91983 19.114
rtibia 30.8925
rfoot -17.7907 -15.1411
rtoes 10.0749
lfemur -34.9592 10.7506 -18.5808
ltibia 16.524
lfoot -7.44476 2.47614
ltoes -7.96081
90
root 50.2365 16.713 -5.58483 96.4621 -86.7055 -69.24
lowerback 16.4635 -0.672918 3.69304
upperback 2.55576 -0.323372 0.668535
thorax -6.50851 -0.29036 -1.30587
lowerneck -2.15651 -0.306449 1.57465
upperneck -2.94099 -0.439365 1.75179
head -0.53703 -0.260534 0.272964
rclavicle -6.26172e-015 8.05078e-015
rhumerus -31.0716 -8.15738 -85.1333
rradius 26.8329
rwrist 0.954265
rhand -20.6711 -7.4449
rfingers 7.12502
rthumb 5.69188 -37.3485
lclavicle -6.26172e-015 8.05078e-015
lhumerus -30.5014 2.34514 84.5623
lradius 31.0658
lwrist 27.1198
lhand -19.5226 12.9534
lfingers 7.12502
lthumb 6.80065 42.8242
rfemur -42.6467 6.86722 19.1428
rtibia 30.9154
rfoot -17.7888 -15.1192
rtoes 10.0467
lfemur -34.8904 10.5164 -18.4647
ltibia 16.5074
lfoot -7.48 2.71656
ltoes -7.94908
91
root 50.2371 16.7121 -5.58035 96.0409 -86.6826 -68.8605
lowerback 16.4896 -0.674897 3.70559
upperback 2.5827 -0.324334 0.67348
thorax -6.49391 -0.2911 -1.30745
lowerneck -2.14151 -0.308345 1.58282
upperneck -2.9291 -0.441824 1.73779
head -0.53589 -0.261559 0.267412
rclavicle -1.0635e-014 -5.17834e-014
rhumerus -31.0947 -7.94913 -85.2322
rradius 27.0897
rwrist 0.74799
rhand -20.6498 -7.44983
rfingers 7.12502
rthumb 5.71246 -37.3528
lclavicle -1.0635e-014 -5.17834e-014
lhumerus -30.4953 2.29455 84.5955
lradius 31.1916
lwrist 27.1766
lhand -19.4905 12.9419
lfingers 7.12502
lthumb 6.8317 42.8117
rfemur -42.6061 6.81308 19.174
rtibia 30.9346
rfoot -17.7855 -15.094
rtoes 10.0122
lfemur -34.8228 10.2676 -18.3409
ltibia 16.5031
lfoot -7.51977 2.97608
ltoes -7.94663
